<svg width="22" height="26" viewBox="0 0 22 26" fill="none" xmlns="http://www.w3.org/2000/svg"><path d="M1 16.442H0h1zm3.303 3.833l-.13.991.13-.99zm13.395 0l.131.991-.13-.99zm2.51-6.213l-.8.601.8-.6zM4.222 8a6 6 0 016-6V0a8 8 0 00-8 8h2zm0 3.01V8h-2v3.01h2zM2 16.442c0-.669.22-1.283.593-1.779L.995 13.461a4.946 4.946 0 00-.994 2.981h2zm2.433 2.842C3.038 19.099 2 17.892 2 16.442H0c0 2.41 1.74 4.503 4.171 4.824l.262-1.982zm6.567.542c-1.97 0-4.53-.273-6.567-.542l-.262 1.982c2.052.272 4.72.56 6.829.56v-2zm6.566-.542c-2.037.269-4.597.542-6.566.542v2c2.108 0 4.777-.288 6.828-.56l-.262-1.982zM20 16.442c0 1.45-1.038 2.657-2.434 2.842l.262 1.982C20.26 20.945 22 18.853 22 16.442h-2zm-.593-1.779c.372.496.593 1.11.593 1.78h2c0-1.118-.37-2.152-.995-2.982l-1.598 1.202zM17.778 8v3.01h2V8h-2zm-6-6a6 6 0 016 6h2a8 8 0 00-8-8v2zm-1.555 0h1.556V0h-1.556v2zm10.783 11.461c-.737-.98-1.227-1.7-1.227-2.451h-2c0 1.538.99 2.803 1.629 3.653l1.598-1.202zM2.223 11.01c0 .752-.49 1.472-1.228 2.452l1.599 1.202c.64-.85 1.63-2.115 1.63-3.654h-2z" fill="#47516C"/><path d="M13.777 23.602C13.18 24.445 12.16 25 11 25c-1.16 0-2.181-.556-2.778-1.4" stroke="#47516C" stroke-width="2" stroke-linecap="round"/></svg>