<svg width="52" height="52" viewBox="0 0 52 52" fill="none" xmlns="http://www.w3.org/2000/svg"><path d="M25.999 39.662c-.886 0-1.758-.207-2.466-.606l-6.986-4.031c-2.894-1.95-3.086-2.304-3.086-5.36v-7.326c0-3.057.192-3.411 3.027-5.316l7.06-4.076c1.402-.812 3.514-.812 4.917 0l6.985 4.032c2.895 1.949 3.087 2.303 3.087 5.36v7.325c0 3.057-.192 3.411-3.028 5.316l-7.059 4.076c-.694.414-1.58.606-2.451.606zm0-25.105c-.502 0-1.005.103-1.359.31l-6.985 4.031c-1.979 1.344-1.979 1.344-1.979 3.441v7.325c0 2.097 0 2.097 2.053 3.485l6.926 3.988c.709.413 1.993.413 2.702 0l6.986-4.032c1.978-1.344 1.978-1.344 1.978-3.44v-7.326c0-2.097 0-2.097-2.052-3.485l-6.926-3.987c-.34-.207-.842-.31-1.344-.31z" fill="#47516C"/><path d="M28.405 32.101c-.31 0-.635-.059-.96-.192l-1.447-.56-1.448.575c-.782.31-1.58.236-2.17-.192-.591-.428-.901-1.166-.857-2.008l.089-1.55-.99-1.197c-.532-.665-.709-1.433-.472-2.141.221-.694.827-1.226 1.639-1.433l1.506-.384.842-1.314c.9-1.418 2.835-1.418 3.736 0l.842 1.314 1.506.384c.812.207 1.418.739 1.64 1.433.22.694.044 1.476-.488 2.126l-.99 1.196.09 1.551c.044.842-.267 1.565-.857 2.008a2.071 2.071 0 01-1.211.384zm-6.07-6.542l.99 1.196c.34.4.531 1.034.502 1.551l-.089 1.55 1.447-.575a2.363 2.363 0 011.625 0l1.447.576-.089-1.55a2.384 2.384 0 01.503-1.552l.989-1.196-1.506-.384a2.436 2.436 0 01-1.315-.945l-.827-1.3-.841 1.3a2.392 2.392 0 01-1.315.96l-1.52.37z" fill="#47516C"/></svg>