<svg width="52" height="52" viewBox="0 0 52 52" fill="none" xmlns="http://www.w3.org/2000/svg"><path d="M36 34.4v-3.6H19.75c-2.071 0-3.75 1.612-3.75 3.6m6 3.6h10c1.4 0 2.1 0 2.635-.262.47-.23.853-.597 1.093-1.048.272-.514.272-1.186.272-2.53V17.84c0-1.344 0-2.016-.273-2.53a2.452 2.452 0 00-1.092-1.048C34.1 14 33.4 14 32 14H22c-2.1 0-3.15 0-3.953.392a3.679 3.679 0 00-1.638 1.574C16 16.736 16 17.744 16 19.76v12.48c0 2.016 0 3.024.409 3.794.36.678.933 1.229 1.639 1.574C18.85 38 19.9 38 22 38z" stroke="#47516C" stroke-width="2.2" stroke-linecap="round" stroke-linejoin="round"/></svg>