<svg width="52" height="52" viewBox="0 0 52 52" fill="none" xmlns="http://www.w3.org/2000/svg"><path fill-rule="evenodd" clip-rule="evenodd" d="M32.596 15.11a2.98 2.98 0 00-4.311.001L15.957 27.86a4.233 4.233 0 00-1.177 2.77l-.18 4.43c-.061 1.501 1.1 2.753 2.555 2.753h4.244a3.969 3.969 0 002.887-1.257l12.25-12.978a3.226 3.226 0 00-.028-4.429l-3.912-4.04zm-2.78 1.581a.865.865 0 011.25 0l3.913 4.04a.937.937 0 01.008 1.285l-2.366 2.507-5.193-5.363 2.387-2.469zm-3.918 4.05l-8.41 8.7c-.332.341-.526.8-.546 1.283l-.18 4.43a.4.4 0 00.393.423h4.244c.504 0 .986-.21 1.338-.582l8.373-8.871-5.212-5.382z" fill="#47516C"/></svg>