<svg width="124" height="114" viewBox="0 0 124 114" fill="none" xmlns="http://www.w3.org/2000/svg"><rect x="1.5" y="8.5" width="104" height="104" rx="32.5" stroke="#3347E6" stroke-width="3"/><path d="M53.387 77.362c-4.74 0-9.48-.753-13.975-2.258-1.708-.59-3.01-1.79-3.58-3.356-.59-1.567-.386-3.296.55-4.842l2.339-3.885c.488-.814.935-2.441.935-3.397v-5.879c0-7.567 6.164-13.73 13.731-13.73s13.73 6.163 13.73 13.73v5.879c0 .936.448 2.583.936 3.417l2.32 3.865a5.63 5.63 0 01.447 4.841 5.533 5.533 0 01-3.479 3.357c-4.475 1.505-9.214 2.258-13.954 2.258zm0-34.296c-5.879 0-10.68 4.78-10.68 10.68v5.878c0 1.485-.61 3.682-1.362 4.963l-2.34 3.885c-.447.753-.57 1.547-.305 2.218.244.691.855 1.22 1.689 1.505 8.502 2.848 17.514 2.848 26.017 0a2.483 2.483 0 001.566-1.526 2.534 2.534 0 00-.203-2.197l-2.34-3.885c-.773-1.322-1.363-3.498-1.363-4.983v-5.859c0-5.899-4.78-10.68-10.679-10.68z" fill="#3347E6"/><path d="M57.171 43.614c-.142 0-.285-.02-.427-.06-.59-.163-1.16-.285-1.709-.367-1.729-.224-3.397-.102-4.963.366-.57.183-1.18 0-1.566-.427a1.509 1.509 0 01-.285-1.587A5.541 5.541 0 0153.408 38c2.319 0 4.353 1.383 5.187 3.54a1.55 1.55 0 01-.285 1.586 1.573 1.573 0 01-1.139.488zM53.386 82a7.656 7.656 0 01-5.39-2.237 7.656 7.656 0 01-2.238-5.39h3.051c0 1.2.488 2.379 1.343 3.233a4.608 4.608 0 003.234 1.343 4.584 4.584 0 004.577-4.577h3.051A7.63 7.63 0 0153.386 82z" fill="#3347E6"/><path fill="#fff" d="M82.5 4.5h37v38h-37z"/><path d="M100.5 32c-4.968 0-9-4.032-9-9s4.032-9 9-9 9 4.032 9 9-4.032 9-9 9zm0-14.4a5.408 5.408 0 00-5.4 5.4c0 2.976 2.424 5.4 5.4 5.4 2.976 0 5.4-2.424 5.4-5.4 0-2.976-2.424-5.4-5.4-5.4z" fill="#A6B0FF"/><path stroke="#fff" stroke-width="9" d="M82.5 4.5h37v38h-37z"/></svg>