<svg width="24" height="28" viewBox="0 0 24 28" fill="none" xmlns="http://www.w3.org/2000/svg"><path d="M22 22.4v-3.6H5.75C3.679 18.8 2 20.412 2 22.4M8 26h10c1.4 0 2.1 0 2.635-.262a2.45 2.45 0 001.092-1.048c.273-.514.273-1.186.273-2.53V5.84c0-1.344 0-2.016-.273-2.53a2.452 2.452 0 00-1.092-1.048C20.1 2 19.4 2 18 2H8c-2.1 0-3.15 0-3.952.392a3.678 3.678 0 00-1.64 1.574C2 4.736 2 5.744 2 7.76v12.48c0 2.016 0 3.024.409 3.794.36.678.933 1.229 1.639 1.574C4.85 26 5.9 26 8 26z" stroke="#47516C" stroke-width="2.2" stroke-linecap="round" stroke-linejoin="round"/></svg>