<svg width="126" height="41" viewBox="0 0 126 41" fill="none" xmlns="http://www.w3.org/2000/svg"><path d="M20.23 41c11.172 0 20.23-9.178 20.23-20.5S31.401 0 20.23 0C9.057 0 0 9.178 0 20.5S9.057 41 20.23 41z" fill="#5060DB"/><path d="M18.776 27.26c-1.103.956-2.512 1.435-4.226 1.435s-3.123-.479-4.226-1.435c-1.104-.957-1.656-2.245-1.656-3.864V12.932h3.486v10.155c0 1.442.799 2.164 2.396 2.164 1.598 0 2.396-.722 2.396-2.164V12.932h3.486v10.464c0 1.62-.552 2.907-1.655 3.864zm8.135-2.274h5.948v3.4H22.4v-2.738l5.84-9.317h-5.73v-3.4h10.24v2.738l-5.839 9.317z" fill="#fff"/><path d="M58.375 17.83H55.36v5.247c0 .593.235.969.703 1.127.468.158 1.238.207 2.31.148v4.032c-2.788.296-4.72.03-5.792-.8-1.072-.85-1.609-2.352-1.609-4.507V17.83h-2.34v-4.27h2.34v-2.816l4.389-1.334v4.15h3.013v4.27zm12.819-4.27h4.388v14.824h-4.388V26.99c-1.034 1.205-2.487 1.808-4.36 1.808-1.93 0-3.579-.751-4.944-2.253-1.365-1.522-2.048-3.38-2.048-5.574s.683-4.041 2.048-5.544c1.365-1.521 3.013-2.282 4.945-2.282 1.872 0 3.325.603 4.359 1.808V13.56zm-5.998 10.05c.644.653 1.482.98 2.516.98 1.033 0 1.872-.327 2.516-.98.644-.651.966-1.53.966-2.638 0-1.107-.322-1.986-.966-2.638-.644-.652-1.483-.979-2.516-.979-1.034 0-1.872.327-2.516.979-.644.652-.965 1.532-.965 2.638 0 1.107.321 1.987.965 2.639zM84.359 7.633l-2.34 8.745h-3.51l1.17-8.745h4.68zm2.927 20.752V6.742h4.388v21.642h-4.388zm11.637-16.898a2.494 2.494 0 01-1.843.77 2.59 2.59 0 01-1.872-.77 2.66 2.66 0 01-.761-1.898c0-.731.253-1.354.76-1.867.527-.534 1.15-.8 1.873-.8.721 0 1.336.266 1.843.8.526.513.79 1.136.79 1.867 0 .732-.263 1.364-.79 1.898zm-4.037 16.898V13.56h4.388v14.823h-4.388zm23.982-15.238c1.677 0 3.023.563 4.037 1.69 1.014 1.106 1.522 2.589 1.522 4.446v9.102h-4.389v-8.716c0-.751-.185-1.344-.556-1.779-.351-.435-.868-.652-1.55-.652-.722 0-1.287.247-1.697.741-.39.494-.585 1.176-.585 2.046v8.36h-4.388v-8.716c0-.751-.186-1.344-.556-1.779-.351-.435-.868-.652-1.551-.652-.722 0-1.287.247-1.696.741-.391.494-.586 1.176-.586 2.046v8.36h-4.388V13.56h4.388v1.364c.8-1.186 2.107-1.78 3.921-1.78 1.696 0 2.974.653 3.832 1.957.897-1.304 2.311-1.956 4.242-1.956z" fill="#1A2134"/></svg>