<svg width="18" height="18" viewBox="0 0 18 18" fill="none" xmlns="http://www.w3.org/2000/svg"><path d="M17.902 16.314c.13.147.13.285 0 .416l-1.195 1.197a.263.263 0 01-.195.073.263.263 0 01-.195-.073l-3.66-3.665a7.937 7.937 0 01-2.733 1.344c-1.008.277-2.09.325-3.244.146a7.294 7.294 0 01-2.416-.806 9.164 9.164 0 01-2.025-1.49A6.687 6.687 0 01.8 11.379a9.573 9.573 0 01-.731-2.443C-.095 7.65.035 6.428.458 5.272c.423-1.157 1.05-2.142 1.879-2.957A8.275 8.275 0 015.289.46C6.427.035 7.647-.095 8.949.068a7.897 7.897 0 014.49 2.174 8.32 8.32 0 011.511 2.004c.407.749.675 1.563.805 2.443.18 1.123.13 2.19-.146 3.2a8.49 8.49 0 01-1.342 2.785l3.635 3.64zm-9.978-2.712a5.5 5.5 0 002.196-.44 5.708 5.708 0 001.805-1.22 5.718 5.718 0 001.22-1.809 5.523 5.523 0 00.439-2.198c0-.782-.146-1.515-.44-2.2a5.718 5.718 0 00-1.219-1.807 5.71 5.71 0 00-1.805-1.222 5.508 5.508 0 00-2.196-.44c-.78 0-1.513.147-2.196.44a5.43 5.43 0 00-1.781 1.222 6.316 6.316 0 00-1.22 1.808 5.019 5.019 0 00-.439 2.199c.016.781.163 1.514.44 2.198a5.225 5.225 0 001.219 1.808c.537.521 1.13.929 1.781 1.222.65.293 1.383.44 2.196.44z" fill="#1A2134"/></svg>