<svg width="22" height="26" viewBox="0 0 22 26" fill="none" xmlns="http://www.w3.org/2000/svg">
<path d="M1.0008 16.4421H0.00080198H1.0008ZM4.30323 20.2751L4.17217 21.2664H4.17217L4.30323 20.2751ZM17.6984 20.2751L17.8294 21.2664L17.6984 20.2751ZM20.2071 14.0622L19.4078 14.6632L20.2071 14.0622ZM4.22311 8C4.22311 4.68629 6.9094 2 10.2231 2V0C5.80483 0 2.22311 3.58172 2.22311 8H4.22311ZM4.22311 11.0094V8H2.22311V11.0094H4.22311ZM2.0008 16.4421C2.0008 15.7732 2.22123 15.1586 2.59382 14.6631L0.995357 13.4611C0.371146 14.2912 0.00080204 15.3248 0.00080198 16.4421H2.0008ZM4.43428 19.2837C3.039 19.0992 2.0008 17.8918 2.0008 16.4421H0.00080198C0.000801861 18.8525 1.74069 20.945 4.17217 21.2664L4.43428 19.2837ZM11.0008 19.8262C9.03193 19.8262 6.4718 19.553 4.43428 19.2837L4.17217 21.2664C6.22364 21.5376 8.8929 21.8262 11.0008 21.8262V19.8262ZM17.5673 19.2837C15.5298 19.553 12.9697 19.8262 11.0008 19.8262V21.8262C13.1087 21.8262 15.778 21.5376 17.8294 21.2664L17.5673 19.2837ZM20.0008 16.4421C20.0008 17.8918 18.9626 19.0992 17.5673 19.2837L17.8294 21.2664C20.2609 20.945 22.0008 18.8525 22.0008 16.4421H20.0008ZM19.4078 14.6632C19.7804 15.1587 20.0008 15.7732 20.0008 16.4421H22.0008C22.0008 15.3249 21.6305 14.2912 21.0063 13.4612L19.4078 14.6632ZM17.7787 8V11.0096H19.7787V8H17.7787ZM11.7787 2C15.0924 2 17.7787 4.68629 17.7787 8H19.7787C19.7787 3.58172 16.1969 0 11.7787 0V2ZM10.2231 2H11.7787V0H10.2231V2ZM21.0063 13.4612C20.2693 12.4811 19.7787 11.7609 19.7787 11.0096H17.7787C17.7787 12.5484 18.7684 13.8129 19.4078 14.6632L21.0063 13.4612ZM2.22311 11.0094C2.22311 11.7607 1.7324 12.481 0.995357 13.4611L2.59382 14.6631C3.23328 13.8128 4.22311 12.5483 4.22311 11.0094H2.22311Z" fill="#47516C"/>
<path d="M13.7773 23.6016C13.1802 24.445 12.159 25.001 10.9996 25.001C9.84015 25.001 8.81898 24.445 8.2218 23.6016" stroke="#47516C" stroke-width="2" stroke-linecap="round"/>
</svg>
