<svg width="32" height="32" viewBox="0 0 32 32" fill="none" xmlns="http://www.w3.org/2000/svg">
<rect width="32" height="32" rx="5" fill="#F5F6FA"/>
<path fill-rule="evenodd" clip-rule="evenodd" d="M10.2925 10.3053C10.4798 10.1178 10.7339 10.0125 10.9988 10.0125C11.2637 10.0125 11.5177 10.1178 11.7051 10.3053L15.9938 14.5983L20.2824 10.3053C20.3746 10.2098 20.4848 10.1336 20.6067 10.0812C20.7286 10.0288 20.8597 10.0012 20.9923 10C21.125 9.99888 21.2565 10.0242 21.3793 10.0745C21.5021 10.1247 21.6136 10.199 21.7074 10.2929C21.8012 10.3868 21.8754 10.4984 21.9256 10.6213C21.9758 10.7442 22.0011 10.8759 22 11.0087C21.9988 11.1415 21.9713 11.2727 21.9189 11.3947C21.8665 11.5167 21.7904 11.627 21.695 11.7193L17.4063 16.0123L21.695 20.3053C21.877 20.4939 21.9777 20.7465 21.9754 21.0087C21.9731 21.2709 21.8681 21.5217 21.6828 21.7071C21.4976 21.8925 21.2471 21.9977 20.9851 22C20.7232 22.0022 20.4709 21.9014 20.2824 21.7193L15.9938 17.4263L11.7051 21.7193C11.5167 21.9014 11.2643 22.0022 11.0024 22C10.7404 21.9977 10.4899 21.8925 10.3047 21.7071C10.1194 21.5217 10.0144 21.2709 10.0121 21.0087C10.0098 20.7465 10.1105 20.4939 10.2925 20.3053L14.5812 16.0123L10.2925 11.7193C10.1052 11.5318 10 11.2775 10 11.0123C10 10.7471 10.1052 10.4928 10.2925 10.3053Z" fill="#1A2134"/>
</svg>
