<svg width="26" height="28" viewBox="0 0 26 28" fill="none" xmlns="http://www.w3.org/2000/svg">
<path d="M12.9987 27.6619C12.1127 27.6619 11.2414 27.4551 10.5325 27.0564L3.54739 23.0248C0.652918 21.0755 0.460938 20.7211 0.460938 17.6641V10.3393C0.460938 7.28242 0.652918 6.92799 3.48832 5.02296L10.5473 0.94706C11.9502 0.134834 14.062 0.134834 15.465 0.94706L22.4501 4.97865C25.3446 6.92799 25.5366 7.28242 25.5366 10.3393V17.6641C25.5366 20.7211 25.3446 21.0755 22.5092 22.9805L15.4502 27.0564C14.7561 27.4699 13.87 27.6619 12.9987 27.6619ZM12.9987 2.55674C12.4966 2.55674 11.9945 2.66012 11.6401 2.86687L4.65497 6.89846C2.6761 8.24232 2.6761 8.24232 2.6761 10.3393V17.6641C2.6761 19.7612 2.6761 19.7612 4.72881 21.1493L11.6549 25.1366C12.3637 25.5501 13.6485 25.5501 14.3574 25.1366L21.3425 21.105C23.3214 19.7612 23.3214 19.7612 23.3214 17.6641V10.3393C23.3214 8.24232 23.3214 8.24232 21.2687 6.85415L14.3426 2.86687C14.003 2.66012 13.5008 2.55674 12.9987 2.55674Z" fill="#47516C"/>
<path d="M15.4047 20.1014C15.0946 20.1014 14.7697 20.0423 14.4448 19.9094L12.9976 19.3482L11.5503 19.9242C10.7677 20.2343 9.9702 20.1604 9.37949 19.7322C8.78878 19.3039 8.47866 18.5655 8.52296 17.7238L8.61157 16.1731L7.62213 14.977C7.09049 14.3124 6.91328 13.5445 7.14956 12.8356C7.37108 12.1416 7.97655 11.6099 8.78878 11.4032L10.2951 11.0192L11.1369 9.70488C12.0377 8.28718 13.9723 8.28718 14.8731 9.70488L15.7148 11.0192L17.2212 11.4032C18.0334 11.6099 18.6389 12.1416 18.8604 12.8356C19.0819 13.5297 18.9047 14.3124 18.373 14.9622L17.3836 16.1584L17.4722 17.709C17.5165 18.5508 17.2064 19.2744 16.6157 19.7174C16.2613 19.9685 15.8478 20.1014 15.4047 20.1014ZM9.33519 13.5593L10.3246 14.7554C10.6643 15.1542 10.8563 15.7892 10.8267 16.3061L10.7381 17.8567L12.1854 17.2807C12.6727 17.0887 13.3225 17.0887 13.8098 17.2807L15.257 17.8567L15.1684 16.3061C15.1389 15.7892 15.3309 15.1689 15.6705 14.7554L16.66 13.5593L15.1537 13.1753C14.6516 13.0424 14.1199 12.6584 13.8393 12.2302L13.0124 10.9306L12.1706 12.2302C11.89 12.6732 11.3584 13.0572 10.8563 13.1901L9.33519 13.5593Z" fill="#47516C"/>
</svg>
