<svg width="24" height="24" viewBox="0 0 24 24" fill="none" xmlns="http://www.w3.org/2000/svg">
<path fill-rule="evenodd" clip-rule="evenodd" d="M18.5961 1.1094C17.4051 -0.12046 15.4747 -0.119702 14.2846 1.11109L1.95675 13.8599C1.2427 14.5984 0.822891 15.5869 0.780405 16.6299L0.599966 21.0594C0.538802 22.561 1.70024 23.8128 3.15458 23.8129L7.39924 23.813C8.48612 23.8131 9.52698 23.3597 10.2859 22.5557L22.536 9.57753C23.7016 8.34259 23.6893 6.36857 22.5085 5.1492L18.5961 1.1094ZM15.8151 2.69144C16.1606 2.33411 16.721 2.33389 17.0668 2.69095L20.9791 6.73075C21.322 7.08476 21.3255 7.65786 20.9871 8.01639L18.6212 10.523L13.4277 5.16032L15.8151 2.69144ZM11.8984 6.74186L3.48724 15.4403C3.15633 15.7825 2.96179 16.2406 2.9421 16.7239L2.76166 21.1535C2.75225 21.3845 2.93093 21.577 3.15468 21.5771L7.39933 21.5773C7.90301 21.5773 8.38536 21.3672 8.73705 20.9946L17.1103 12.1236L11.8984 6.74186Z" fill="#47516C"/>
</svg>
