<svg width="24" height="28" viewBox="0 0 24 28" fill="none" xmlns="http://www.w3.org/2000/svg">
<path d="M22 22.4V18.8H5.75C3.67893 18.8 2 20.4118 2 22.4M8 26H18C19.4001 26 20.1002 26 20.635 25.7384C21.1054 25.5083 21.4878 25.1412 21.7275 24.6896C22 24.1762 22 23.5041 22 22.16V5.84C22 4.49587 22 3.82381 21.7275 3.31042C21.4878 2.85883 21.1054 2.49168 20.635 2.26158C20.1002 2 19.4001 2 18 2H8C5.8998 2 4.8497 2 4.04754 2.39238C3.34193 2.73752 2.76825 3.28825 2.40873 3.96563C2 4.73572 2 5.74381 2 7.76V20.24C2 22.2562 2 23.2643 2.40873 24.0344C2.76825 24.7117 3.34193 25.2625 4.04754 25.6076C4.8497 26 5.8998 26 8 26Z" stroke="#47516C" stroke-width="2.2" stroke-linecap="round" stroke-linejoin="round"/>
</svg>
