<svg width="126" height="41" viewBox="0 0 126 41" fill="none" xmlns="http://www.w3.org/2000/svg">
<path d="M20.2296 41C31.4021 41 40.4592 31.8218 40.4592 20.5C40.4592 9.17816 31.4021 0 20.2296 0C9.0571 0 0 9.17816 0 20.5C0 31.8218 9.0571 41 20.2296 41Z" fill="#5060DB"/>
<path d="M18.7765 27.2596C17.6728 28.2163 16.2639 28.6946 14.5501 28.6946C12.8363 28.6946 11.4275 28.2163 10.3237 27.2596C9.21989 26.3029 8.66797 25.0151 8.66797 23.3961V12.9316H12.1537V23.087C12.1537 24.5294 12.9525 25.2506 14.5501 25.2506C16.1477 25.2506 16.9465 24.5294 16.9465 23.087V12.9316H20.4323V23.3961C20.4323 25.0151 19.8803 26.3029 18.7765 27.2596ZM26.9111 24.9856H32.8586V28.3855H22.4015V25.6479L28.2401 16.3315H22.5104V12.9316H32.7497V15.6692L26.9111 24.9856Z" fill="white"/>
<path d="M58.3748 17.8298H55.3615V23.0772C55.3615 23.6701 55.5955 24.0456 56.0636 24.2038C56.5317 24.3619 57.3021 24.4113 58.3748 24.352V28.3839C55.5858 28.6803 53.6549 28.4135 52.5823 27.5834C51.5096 26.7336 50.9732 25.2315 50.9732 23.0772V17.8298H48.6328V13.5608H50.9732V10.7444L55.3615 9.41034V13.5608H58.3748V17.8298ZM71.1935 13.5608H75.5817V28.3839H71.1935V26.9905C70.1596 28.1961 68.7068 28.7989 66.8345 28.7989C64.9034 28.7989 63.2554 28.0479 61.8902 26.5458C60.5249 25.024 59.8423 23.1662 59.8423 20.9723C59.8423 18.7785 60.5249 16.9306 61.8902 15.4285C63.2554 13.9067 64.9034 13.1458 66.8345 13.1458C68.7068 13.1458 70.1596 13.7486 71.1935 14.9542V13.5608ZM65.196 23.6108C65.8396 24.2631 66.6782 24.5892 67.7121 24.5892C68.7454 24.5892 69.5844 24.2631 70.2281 23.6108C70.8717 22.9586 71.1935 22.0792 71.1935 20.9723C71.1935 19.8655 70.8717 18.986 70.2281 18.3338C69.5844 17.6816 68.7454 17.3555 67.7121 17.3555C66.6782 17.3555 65.8396 17.6816 65.196 18.3338C64.5524 18.986 64.2306 19.8655 64.2306 20.9723C64.2306 22.0792 64.5524 22.9586 65.196 23.6108ZM84.3595 7.63157L82.0191 16.3772H78.5085L79.6787 7.63157H84.3595ZM87.2863 28.3839V6.74219H91.6745V28.3839H87.2863ZM98.923 11.4856C98.4157 11.9995 97.8013 12.2564 97.0799 12.2564C96.3578 12.2564 95.7341 11.9995 95.2076 11.4856C94.7003 10.9519 94.4469 10.3195 94.4469 9.58822C94.4469 8.85697 94.7003 8.2344 95.2076 7.72051C95.7341 7.18688 96.3578 6.92006 97.0799 6.92006C97.8013 6.92006 98.4157 7.18688 98.923 7.72051C99.4495 8.2344 99.7128 8.85697 99.7128 9.58822C99.7128 10.3195 99.4495 10.9519 98.923 11.4856ZM94.8857 28.3839V13.5608H99.274V28.3839H94.8857ZM118.868 13.1458C120.545 13.1458 121.891 13.709 122.905 14.8356C123.919 15.9424 124.427 17.4247 124.427 19.2825V28.3839H120.038V19.6679C120.038 18.9169 119.853 18.3239 119.482 17.8891C119.131 17.4544 118.614 17.2369 117.932 17.2369C117.21 17.2369 116.645 17.484 116.235 17.9781C115.845 18.4722 115.65 19.154 115.65 20.0237V28.3839H111.262V19.6679C111.262 18.9169 111.076 18.3239 110.706 17.8891C110.355 17.4544 109.838 17.2369 109.155 17.2369C108.433 17.2369 107.868 17.484 107.459 17.9781C107.068 18.4722 106.873 19.154 106.873 20.0237V28.3839H102.485V13.5608H106.873V14.9245C107.673 13.7387 108.98 13.1458 110.794 13.1458C112.49 13.1458 113.768 13.798 114.626 15.1024C115.523 13.798 116.937 13.1458 118.868 13.1458Z" fill="#1A2134"/>
</svg>
