<svg width="124" height="114" viewBox="0 0 124 114" fill="none" xmlns="http://www.w3.org/2000/svg">
<rect x="1.5" y="8.5" width="104" height="104" rx="32.5" stroke="#3347E6" stroke-width="3"/>
<path d="M53.387 77.3618C48.6474 77.3618 43.9078 76.6092 39.4123 75.1039C37.7036 74.514 36.4018 73.3138 35.8322 71.7475C35.2423 70.1812 35.4457 68.4522 36.3814 66.9062L38.7207 63.021C39.2089 62.2073 39.6564 60.58 39.6564 59.6239V53.7452C39.6564 46.1782 45.8199 40.0146 53.387 40.0146C60.9541 40.0146 67.1176 46.1782 67.1176 53.7452V59.6239C67.1176 60.5597 67.5651 62.2073 68.0533 63.0413L70.3722 66.9062C71.2469 68.3708 71.4096 70.1406 70.8197 71.7475C70.2298 73.3545 68.9483 74.575 67.3413 75.1039C62.8662 76.6092 58.1266 77.3618 53.387 77.3618ZM53.387 43.0659C47.5083 43.0659 42.7077 47.8462 42.7077 53.7452V59.6239C42.7077 61.1089 42.0974 63.3058 41.3448 64.5873L39.0055 68.4725C38.558 69.2252 38.4359 70.0185 38.7004 70.6898C38.9445 71.3814 39.5547 71.9103 40.3887 72.195C48.8915 75.0429 57.9028 75.0429 66.4056 72.195C67.1379 71.951 67.7075 71.4017 67.9719 70.6694C68.2364 69.9371 68.1753 69.1438 67.7685 68.4725L65.4292 64.5873C64.6562 63.2651 64.0663 61.0885 64.0663 59.6036V53.7452C64.0663 47.8462 59.2861 43.0659 53.387 43.0659Z" fill="#3347E6"/>
<path d="M57.1712 43.6143C57.0288 43.6143 56.8864 43.5939 56.744 43.5533C56.1541 43.3905 55.5845 43.2685 55.0353 43.1871C53.3063 42.9633 51.6383 43.0854 50.072 43.5533C49.5024 43.7363 48.8922 43.5533 48.5057 43.1261C48.1192 42.6989 47.9971 42.0887 48.2209 41.5394C49.0549 39.4036 51.0891 38 53.408 38C55.7269 38 57.7611 39.3832 58.5951 41.5394C58.7985 42.0887 58.6968 42.6989 58.3103 43.1261C58.0052 43.4515 57.578 43.6143 57.1712 43.6143Z" fill="#3347E6"/>
<path d="M53.3859 82.0002C51.3721 82.0002 49.4193 81.1865 47.9954 79.7626C46.5715 78.3387 45.7578 76.3859 45.7578 74.3721H48.8091C48.8091 75.5722 49.2972 76.752 50.1516 77.6064C51.0059 78.4607 52.1858 78.9489 53.3859 78.9489C55.9083 78.9489 57.9628 76.8944 57.9628 74.3721H61.014C61.014 78.5828 57.5966 82.0002 53.3859 82.0002Z" fill="#3347E6"/>
<rect x="82.5" y="4.5" width="37" height="38" fill="white"/>
<path d="M100.5 32C95.532 32 91.5 27.968 91.5 23C91.5 18.032 95.532 14 100.5 14C105.468 14 109.5 18.032 109.5 23C109.5 27.968 105.468 32 100.5 32ZM100.5 17.6C97.524 17.6 95.1 20.024 95.1 23C95.1 25.976 97.524 28.4 100.5 28.4C103.476 28.4 105.9 25.976 105.9 23C105.9 20.024 103.476 17.6 100.5 17.6Z" fill="#A6B0FF"/>
<rect x="82.5" y="4.5" width="37" height="38" stroke="white" stroke-width="9"/>
</svg>
