<svg width="18" height="18" viewBox="0 0 18 18" fill="none" xmlns="http://www.w3.org/2000/svg">
<path d="M17.9024 16.3143C18.0325 16.4609 18.0325 16.5993 17.9024 16.7296L16.7069 17.9267C16.6581 17.9756 16.5931 18 16.5117 18C16.4304 18 16.3654 17.9756 16.3166 17.9267L12.6569 14.2621C11.8437 14.881 10.9328 15.3289 9.9244 15.6058C8.91596 15.8827 7.83434 15.9315 6.67952 15.7524C5.81747 15.6221 5.01235 15.3533 4.26416 14.9462C3.51596 14.539 2.84096 14.0422 2.23916 13.4559C1.63735 12.8696 1.15753 12.1773 0.799699 11.3793C0.441868 10.5812 0.197892 9.76685 0.0677711 8.93621C-0.0948795 7.64953 0.035241 6.42799 0.458133 5.2716C0.881024 4.11522 1.50723 3.12984 2.33675 2.31549C3.16627 1.50113 4.1503 0.88222 5.28886 0.458754C6.42741 0.0352888 7.64729 -0.0950083 8.94849 0.0678631C9.81054 0.181873 10.6238 0.42618 11.3883 0.800784C12.1527 1.17539 12.8358 1.65586 13.4377 2.2422C14.0395 2.82853 14.5437 3.49631 14.9503 4.24551C15.3569 4.99472 15.6253 5.80908 15.7554 6.68858C15.9343 7.8124 15.8855 8.8792 15.609 9.88901C15.3325 10.8988 14.8852 11.8272 14.2672 12.6741L17.9024 16.3143ZM7.9238 13.6025C8.70452 13.6025 9.43645 13.4559 10.1196 13.1627C10.8027 12.8696 11.4045 12.4624 11.925 11.9412C12.4455 11.42 12.8521 10.8174 13.1449 10.1333C13.4377 9.44925 13.584 8.71633 13.584 7.93455C13.584 7.15277 13.4377 6.41985 13.1449 5.73579C12.8521 5.05173 12.4455 4.4491 11.925 3.92791C11.4045 3.40673 10.8027 2.99955 10.1196 2.70638C9.43645 2.41321 8.70452 2.26663 7.9238 2.26663C7.14307 2.26663 6.41114 2.41321 5.72801 2.70638C5.04488 2.99955 4.4512 3.40673 3.94699 3.92791C3.44277 4.4491 3.03614 5.05173 2.72711 5.73579C2.41807 6.41985 2.27169 7.15277 2.28795 7.93455C2.30422 8.71633 2.4506 9.44925 2.72711 10.1333C3.00361 10.8174 3.41024 11.42 3.94699 11.9412C4.48374 12.4624 5.07741 12.8696 5.72801 13.1627C6.37861 13.4559 7.11054 13.6025 7.9238 13.6025Z" fill="#1A2134"/>
</svg>
